<?xml version="1.0" encoding="UTF-8"?>
<svg width="20px" height="21px" viewBox="0 0 20 21" version="1.1" xmlns="http://www.w3.org/2000/svg" xmlns:xlink="http://www.w3.org/1999/xlink">
    <!-- Generator: Sketch 43.2 (39069) - http://www.bohemiancoding.com/sketch -->
    <title>Clock</title>
    <desc>Created with Sketch.</desc>
    <defs></defs>
    <g id="SIngle-Page" stroke="none" stroke-width="1" fill="none" fill-rule="evenodd" opacity="0.6">
        <g id="Single" transform="translate(-89.000000, -1184.000000)" fill="#9E9E9E">
            <g id="Timestamp---Dark" transform="translate(89.000000, 1178.474135)">
                <path d="M9.99909083,5.86701434 C15.5223202,5.86701434 20,10.3445856 20,15.8665599 C20,21.3903521 15.5223202,25.8670143 9.99909083,25.8670143 C4.47677062,25.8670143 0,21.3903521 0,15.8665599 C0,10.3445856 4.47677062,5.86701434 9.99909083,5.86701434 L9.99909083,5.86701434 L9.99909083,5.86701434 Z M17.407037,15.8665599 C17.407037,11.7762085 14.0903719,8.46120604 9.99909083,8.46120604 C5.90962815,8.46120604 2.592963,11.7762085 2.592963,15.8665599 C2.592963,19.9578201 5.90962815,23.2746406 9.99909083,23.2746406 C14.0903719,23.2746406 17.407037,19.9578201 17.407037,15.8665599 L17.407037,15.8665599 Z M15.92963,15.94564 C15.92963,16.3783083 15.6014183,16.7282605 15.1786526,16.7746179 L9.51995636,16.7746179 C9.28902628,16.7564385 9.10628239,16.5673734 9.09173561,16.3337689 L9.09173561,16.3219523 L9.09173561,11.9207343 C9.10810074,11.4662508 9.47813438,11.104482 9.93726702,11.104482 C10.4036731,11.104482 10.7818893,11.4826122 10.7818893,11.9489123 L10.7818893,14.6185482 C10.7818893,14.62582 10.7800709,14.6340007 10.7800709,14.6421814 C10.7800709,14.6503621 10.7818893,14.6585428 10.7818893,14.6639966 L10.7818893,14.6703593 C10.7937085,14.899419 10.9728157,15.0784855 11.1982908,15.1012097 L15.1450132,15.1048455 C15.5832348,15.1348415 15.92963,15.4993372 15.92963,15.94564 L15.92963,15.94564 Z" id="Clock"></path>
            </g>
        </g>
    </g>
</svg>