<?xml version="1.0" standalone="no"?>
<!DOCTYPE svg PUBLIC "-//W3C//DTD SVG 20010904//EN"
 "http://www.w3.org/TR/2001/REC-SVG-20010904/DTD/svg10.dtd">
<svg version="1.0" xmlns="http://www.w3.org/2000/svg"
 width="609.947483pt" height="573.898055pt" viewBox="0 0 609.947483 573.898055"
 preserveAspectRatio="xMidYMid meet">
<metadata>
Created by Potrace Professional 1.1m
</metadata>
<g transform="translate(-295.089031,601.854334) rotate(-360.00) scale(0.095238,-0.095238)"
fill="#000000" stroke="none">
<path d="M6232 6301 c-29 -14 -513 -492 -1582 -1562 -1385 -1386 -1541 -1546
-1548 -1582 -16 -90 22 -166 104 -205 54 -27 91 -28 142 -5 25 11 543 522
1495 1472 l1457 1456 884 -893 c486 -491 1144 -1153 1462 -1472 553 -555 580
-581 626 -589 120 -21 216 41 228 148 11 100 36 71 -765 874 l-744 746 0 522
c0 577 2 553 -68 614 -78 69 -200 52 -263 -38 l-32 -45 -5 -341 -5 -340 -604
611 c-425 429 -616 616 -646 629 -53 25 -84 25 -136 0z"/>
<path d="M8385 3360 c-39 -12 -89 -59 -107 -102 -12 -28 -14 -250 -14 -1315
l0 -1281 -657 0 -656 0 0 536 c0 597 2 582 -72 637 l-37 29 -515 3 c-283 2
-531 0 -550 -3 -47 -9 -115 -72 -128 -119 -6 -24 -10 -240 -10 -561 l0 -522
-651 0 -651 0 0 1234 c0 1342 3 1271 -60 1329 -38 36 -77 51 -133 51 -53 0
-99 -26 -140 -80 l-30 -39 -3 -1345 c-2 -913 1 -1357 8 -1383 15 -53 49 -92
99 -115 41 -19 89 -20 904 -20 534 0 875 4 898 10 43 12 98 65 115 109 7 19
11 211 11 559 l0 530 288 0 289 -1 3 -532 3 -533 24 -42 c13 -24 41 -54 62
-69 l38 -26 884 -3 883 -2 47 24 c31 17 55 40 73 71 l26 47 0 1396 0 1397 -29
49 c-45 76 -126 107 -212 82z"/>
</g>
</svg>
