<?xml version="1.0" standalone="no"?>
<!DOCTYPE svg PUBLIC "-//W3C//DTD SVG 20010904//EN"
 "http://www.w3.org/TR/2001/REC-SVG-20010904/DTD/svg10.dtd">
<svg version="1.0" xmlns="http://www.w3.org/2000/svg"
 width="180.961373pt" height="224.724156pt" viewBox="0 0 180.961373 224.724156"
 preserveAspectRatio="xMidYMid meet">
<metadata>
Created by Potrace Professional 1.1m
</metadata>
<g transform="translate(-22.020942,224.814652) rotate(-360.00) scale(0.095238,-0.095238)"
fill="#000000" stroke="none">
<path d="M435 2352 c-72 -29 -203 -285 -204 -397 0 -24 7 -62 16 -82 18 -44
134 -166 281 -296 l102 -91 0 -691 c0 -763 -3 -733 66 -774 40 -25 69 -26 117
-6 68 28 69 35 69 462 l0 384 36 0 36 0 4 -386 c3 -420 3 -417 64 -455 43 -26
87 -25 131 1 66 41 65 25 65 761 0 367 3 667 6 667 4 0 36 -8 71 -17 136 -35
232 -18 284 51 29 40 35 141 13 227 -9 37 -17 68 -17 69 0 2 51 -10 113 -27
62 -16 121 -30 131 -30 17 0 19 17 19 204 0 112 -4 207 -9 209 -4 3 -121 -16
-260 -41 -176 -33 -256 -53 -268 -65 -18 -19 -51 -109 -51 -138 -1 -9 9 -23
20 -29 27 -17 94 -192 74 -192 -6 0 -49 14 -96 31 -86 31 -88 32 -309 32
l-223 0 -106 97 c-151 138 -145 125 -96 224 23 46 51 97 63 114 26 38 28 106
5 140 -32 46 -96 65 -147 44z"/>
<path d="M839 2338 c-93 -35 -154 -93 -183 -176 -64 -182 74 -377 269 -377
103 0 194 55 246 149 27 48 31 67 31 135 0 88 -21 140 -79 198 -72 72 -199
103 -284 71z"/>
<path d="M1995 2144 c-52 -22 -69 -34 -72 -52 -5 -38 24 -39 117 -6 76 27 86
34 86 57 0 36 -45 37 -131 1z"/>
<path d="M1931 1957 c-10 -12 -11 -21 -2 -34 8 -14 28 -17 98 -17 69 0 89 3
97 17 22 35 -8 51 -97 51 -62 0 -85 -4 -96 -17z"/>
<path d="M1925 1801 c-11 -30 5 -45 79 -73 88 -34 122 -33 122 3 0 22 -11 29
-78 55 -91 34 -114 37 -123 15z"/>
</g>
</svg>
