<?xml version="1.0" encoding="UTF-8"?>
<svg width="24px" height="18px" viewBox="0 0 24 18" version="1.1" xmlns="http://www.w3.org/2000/svg" xmlns:xlink="http://www.w3.org/1999/xlink">
    <!-- Generator: Sketch 43.2 (39069) - http://www.bohemiancoding.com/sketch -->
    <title>iconmonstr-location-15</title>
    <desc>Created with Sketch.</desc>
    <defs></defs>
    <g id="Page-1" stroke="none" stroke-width="1" fill="none" fill-rule="evenodd">
        <g id="iconmonstr-location-15" fill-rule="nonzero" fill="#FF6347">
            <path d="M12,0 C8.852,0 6,2.553 6,5.702 C6,8.85 8.602,12.609 12,18 C15.398,12.609 18,8.85 18,5.702 C18,2.553 15.149,0 12,0 Z M12,8 C10.895,8 10,7.105 10,6 C10,4.895 10.895,4 12,4 C13.105,4 14,4.895 14,6 C14,7.105 13.105,8 12,8 Z M22.881,5.499 C22.881,4.007 22.142,2.669 20.979,1.751 L21.72,0.999 C23.115,2.1 24,3.705 24,5.499 C24,7.293 23.115,8.899 21.72,10 L20.979,9.247 C22.142,8.33 22.881,6.991 22.881,5.499 L22.881,5.499 Z M19.5,7.748 L20.24,8.499 C21.171,7.766 21.761,6.695 21.761,5.499 C21.761,4.304 21.171,3.232 20.24,2.499 L19.5,3.25 C20.197,3.801 20.641,4.604 20.641,5.499 C20.641,6.394 20.197,7.198 19.5,7.748 Z M3.021,9.247 L2.28,10 C0.885,8.899 8.8817842e-16,7.293 8.8817842e-16,5.499 C8.8817842e-16,3.705 0.885,2.1 2.28,0.999 L3.021,1.751 C1.858,2.669 1.119,4.007 1.119,5.499 C1.119,6.991 1.858,8.33 3.021,9.247 L3.021,9.247 Z M3.359,5.499 C3.359,4.603 3.802,3.801 4.5,3.25 L3.76,2.499 C2.829,3.232 2.239,4.304 2.239,5.499 C2.239,6.695 2.829,7.766 3.76,8.499 L4.5,7.748 C3.803,7.198 3.359,6.395 3.359,5.499 Z" id="Shape"></path>
        </g>
    </g>
</svg>